<?xml version="1.0" encoding="utf-8"?>
<!-- Generator: Adobe Illustrator 21.1.0, SVG Export Plug-In . SVG Version: 6.00 Build 0)  -->
<svg version="1.1" xmlns="http://www.w3.org/2000/svg" xmlns:xlink="http://www.w3.org/1999/xlink" x="0px" y="0px"
	 viewBox="0 0 525 90" style="enable-background:new 0 0 525 90;" xml:space="preserve">
<style type="text/css">
	.st0{fill:#5BC0DE;}
	.st1{fill:#FFFFFF;}
</style>
<g id="bgr">
	<g>
		<rect x="-0.1" y="0" class="st0" width="525" height="90"/>
	</g>
</g>
<g id="Layer_1">
	<title>cake_logo_white_on_blue</title>
	<g id="Layer_2">
		<path class="st1" d="M100.4,64.9V22.1h9.1v42.8H100.4z"/>
		<path class="st1" d="M146.6,64.9h-8.9V45.8c0.1-1.9-0.3-3.7-1.3-5.3c-0.9-1.2-2.5-1.9-4-1.8c-2.5,0-4.3,0.8-5.4,2.5
			c-1.1,1.7-1.7,4.4-1.7,8.3v15.4h-8.9V32.2h6.8l1.2,4.2h0.5c1-1.6,2.4-2.8,4.1-3.6c1.9-0.8,3.9-1.3,6-1.2c3.8,0,6.7,1,8.7,3.1
			c2,2.1,3,5,3,8.9L146.6,64.9z"/>
		<path class="st1" d="M166.4,58.4c1.9-0.1,3.8-0.4,5.6-1V64c-2.6,1.1-5.4,1.6-8.2,1.5c-3.6,0-6.2-0.9-7.8-2.7s-2.4-4.5-2.5-8.1V39
			h-4.3v-3.8l4.9-3l2.6-6.9h5.7v7h9.2V39h-9.2v15.8c-0.1,1.1,0.3,2.1,1.1,2.8C164.4,58.1,165.4,58.4,166.4,58.4z"/>
		<path class="st1" d="M190.4,65.6c-5.3,0-9.4-1.5-12.4-4.4c-3-2.9-4.4-7-4.4-12.4c0-5.5,1.4-9.7,4.1-12.7s6.5-4.5,11.4-4.5
			c4.6,0,8.2,1.3,10.8,4s3.9,6.3,3.9,10.9v4.3h-21.1c0,2.2,0.8,4.3,2.2,5.9c1.6,1.5,3.7,2.3,5.9,2.1c1.9,0,3.8-0.2,5.6-0.6
			c1.9-0.5,3.7-1.1,5.5-2V63c-1.6,0.8-3.3,1.4-5,1.7C194.8,65.3,192.6,65.6,190.4,65.6z M189.1,38c-1.7-0.1-3.3,0.6-4.4,1.8
			c-1.2,1.4-1.8,3.2-1.9,5.1h12.5c0.1-1.9-0.5-3.7-1.7-5.1C192.4,38.5,190.8,37.8,189.1,38L189.1,38z"/>
		<path class="st1" d="M226.1,31.5c1,0,2,0.1,3,0.3l-0.7,8.4c-0.9-0.2-1.8-0.3-2.6-0.3c-2.4-0.1-4.8,0.6-6.7,2.2
			c-1.7,1.6-2.5,3.9-2.4,6.2v16.7h-8.9V32.2h6.8l1.3,5.5h0.4c1-1.8,2.4-3.3,4.1-4.4C222.1,32.1,224.1,31.5,226.1,31.5z"/>
		<path class="st1" d="M242.6,64.9l-12.5-32.7h9.4l6.3,18.7c0.7,2.2,1.1,4.4,1.3,6.7h0.2c0.2-2.3,0.6-4.5,1.3-6.7l6.3-18.7h9.4
			L251.8,65L242.6,64.9L242.6,64.9z"/>
		<path class="st1" d="M268.1,23.7c0-2.9,1.6-4.4,4.9-4.4c3.2,0,4.9,1.5,4.9,4.4c0.1,1.2-0.4,2.4-1.2,3.2c-1,0.8-2.3,1.3-3.6,1.2
			C269.8,28.1,268.1,26.6,268.1,23.7z M277.5,64.9h-8.9V32.2h8.9V64.9z"/>
		<path class="st1" d="M298.5,65.6c-5.3,0-9.4-1.5-12.4-4.4c-3-2.9-4.5-7-4.5-12.4c0-5.5,1.4-9.7,4.1-12.7s6.5-4.5,11.4-4.5
			c4.6,0,8.2,1.3,10.8,4s3.9,6.3,3.9,10.9v4.3h-21.2c0,2.2,0.8,4.3,2.2,5.9c1.6,1.5,3.7,2.3,5.9,2.1c1.9,0,3.8-0.2,5.6-0.6
			c1.9-0.5,3.7-1.1,5.5-2V63c-1.6,0.8-3.3,1.4-5,1.7C302.9,65.3,300.6,65.6,298.5,65.6z M297.2,38c-1.7-0.1-3.3,0.6-4.5,1.8
			c-1.2,1.4-1.8,3.2-1.9,5.1h12.5c0.1-1.9-0.5-3.7-1.7-5.1C300.5,38.5,299,37.8,297.2,38z"/>
		<path class="st1" d="M342.9,64.9l-2.5-11.5L337,38.9h-0.2l-6,25.9h-9.6L311.9,32h8.9l3.8,14.5c0.6,2.6,1.2,6.2,1.9,10.8h0.2
			c0.2-2.4,0.5-4.7,1-7.1l0.5-2.5l4-15.7h9.8l3.8,15.7c0.1,0.4,0.2,1.1,0.4,1.9s0.3,1.7,0.5,2.7c0.2,0.9,0.3,1.9,0.4,2.8
			s0.2,1.6,0.2,2.2h0.2c0.2-1.4,0.5-3.3,0.9-5.8c0.5-2.5,0.8-4.1,1-5l3.9-14.5h8.8l-9.4,32.8L342.9,64.9z"/>
		<path class="st1" d="M395.5,29c-3.1-0.1-6.1,1.3-7.9,3.9c-1.9,2.6-2.8,6.1-2.8,10.7c0,9.6,3.6,14.3,10.8,14.3
			c3.7-0.1,7.4-0.9,10.9-2.2v7.6c-3.7,1.5-7.7,2.3-11.8,2.2c-6.2,0-11-1.9-14.3-5.7s-5-9.2-5-16.3c-0.1-4,0.7-8,2.4-11.7
			c1.5-3.2,3.9-5.9,7-7.7c3.3-1.9,7-2.8,10.7-2.7c4.4,0,8.6,1.1,12.5,3l-2.9,7.4c-1.6-0.8-3.2-1.4-4.8-2C398.6,29.3,397,29,395.5,29
			z"/>
		<path class="st1" d="M432.4,64.9l-1.7-4.5h-0.2c-1.2,1.7-2.8,3-4.6,3.9c-2,0.8-4.1,1.2-6.2,1.1c-2.7,0.2-5.4-0.8-7.4-2.7
			c-1.8-1.8-2.7-4.4-2.7-7.7c0-3.5,1.2-6,3.6-7.7s6.1-2.6,11-2.7l5.7-0.2V43c0-3.3-1.7-5-5.1-5c-3.2,0.1-6.4,1-9.2,2.4l-3-6
			c3.9-2,8.2-3,12.5-3c4.4,0,7.8,1,10.1,2.9c2.3,1.9,3.5,4.8,3.5,8.7v21.9C438.6,64.9,432.4,64.9,432.4,64.9z M429.8,49.8l-3.5,0.1
			c-2-0.1-4,0.4-5.8,1.4c-1.3,0.9-2,2.4-1.9,3.9c0,2.5,1.4,3.8,4.3,3.8c1.8,0.1,3.6-0.5,5-1.8c1.3-1.2,1.9-3,1.9-4.8V49.8z"/>
		<path class="st1" d="M453.2,47.1l3.9-5l9.2-10h10.1l-13,14.2l13.8,18.5H467l-9.4-13.3l-3.8,3.1v10.2h-8.9V19.3h8.9v20.4
			L453.2,47.1L453.2,47.1z"/>
		<path class="st1" d="M493.5,65.6c-5.3,0-9.4-1.5-12.4-4.4c-3-2.9-4.5-7-4.5-12.4c0-5.5,1.4-9.7,4.1-12.7s6.6-4.5,11.4-4.5
			c4.6,0,8.2,1.3,10.8,4c2.6,2.7,3.9,6.3,3.9,10.9v4.3h-21.2c0,2.2,0.8,4.3,2.2,5.9c1.6,1.5,3.7,2.3,5.9,2.1c1.9,0,3.8-0.2,5.6-0.6
			c1.9-0.5,3.7-1.1,5.5-2V63c-1.6,0.8-3.3,1.4-5,1.7C497.9,65.3,495.6,65.6,493.5,65.6z M492.2,38c-1.7-0.1-3.3,0.6-4.5,1.8
			c-1.2,1.4-1.8,3.2-1.9,5.1h12.5c0.1-1.9-0.5-3.7-1.7-5.1C495.5,38.5,494,37.8,492.2,38z"/>
		<path class="st1" d="M62.5,12.7c-2.1,0.2-4.2,0.4-6.2,0.6c-12.9,1.6-24,4.5-32.4,8.4c-2,0.9-3.8,1.9-5.6,3v37.6l61.1,14.9V39.1
			L62.5,12.7z M73.8,70.2L23.9,57.9V46.8l49.9,12.4V70.2z M73.8,53.4L23.9,40.9V29.7l49.9,12.4V53.4z"/>
	</g>
</g>
</svg>
